<?xml version="1.0" encoding="UTF-8" standalone="no"?>
<svg
   height="281.30mm"
   viewBox="0.0 0.0 137.60 281.30"
   width="137.60mm"
   version="1.1"
   id="svg791"
   sodipodi:docname="cabo_vara.svg"
   inkscape:version="1.1.2 (0a00cf5339, 2022-02-04)"
   xmlns:inkscape="http://www.inkscape.org/namespaces/inkscape"
   xmlns:sodipodi="http://sodipodi.sourceforge.net/DTD/sodipodi-0.dtd"
   xmlns="http://www.w3.org/2000/svg"
   xmlns:svg="http://www.w3.org/2000/svg"
   xmlns:rdf="http://www.w3.org/1999/02/22-rdf-syntax-ns#"
   xmlns:cc="http://creativecommons.org/ns#"
   xmlns:dc="http://purl.org/dc/elements/1.1/">
  <defs
     id="defs795">
    <marker
       id="DistanceX"
       orient="auto"
       refX="0"
       refY="0"
       style="overflow:visible">
      <path
         d="M 3,-3 -3,3 M 0,-5 V 5"
         style="stroke:#000000;stroke-width:0.5"
         id="path1-6" />
    </marker>
    <pattern
       id="Hatch"
       patternUnits="userSpaceOnUse"
       width="8"
       height="8"
       x="0"
       y="0">
      <path
         d="M8 4 l-4,4"
         stroke="#000000"
         stroke-width="0.25"
         linecap="square"
         id="path2" />
      <path
         d="M6 2 l-4,4"
         stroke="#000000"
         stroke-width="0.25"
         linecap="square"
         id="path3" />
      <path
         d="M4 0 l-4,4"
         stroke="#000000"
         stroke-width="0.25"
         linecap="square"
         id="path4" />
    </pattern>
    <symbol
       id="*MODEL_SPACE" />
    <symbol
       id="*PAPER_SPACE" />
    <marker
       id="DistanceX-7"
       orient="auto"
       refX="0"
       refY="0"
       style="overflow:visible">
      <path
         d="M 3,-3 -3,3 M 0,-5 V 5"
         style="stroke:#000000;stroke-width:0.5"
         id="path1157" />
    </marker>
    <pattern
       id="Hatch-5"
       patternUnits="userSpaceOnUse"
       width="8"
       height="8"
       x="0"
       y="0">
      <path
         d="M8 4 l-4,4"
         stroke="#000000"
         stroke-width="0.25"
         linecap="square"
         id="path1160" />
      <path
         d="M6 2 l-4,4"
         stroke="#000000"
         stroke-width="0.25"
         linecap="square"
         id="path1162" />
      <path
         d="M4 0 l-4,4"
         stroke="#000000"
         stroke-width="0.25"
         linecap="square"
         id="path1164" />
    </pattern>
    <symbol
       id="*MODEL_SPACE-3" />
    <symbol
       id="*PAPER_SPACE-5" />
  </defs>
  <sodipodi:namedview
     id="namedview793"
     pagecolor="#ffffff"
     bordercolor="#000000"
     borderopacity="0.25"
     inkscape:pageshadow="2"
     inkscape:pageopacity="0.0"
     inkscape:pagecheckerboard="0"
     inkscape:document-units="mm"
     showgrid="false"
     inkscape:zoom="2.0335201"
     inkscape:cx="217.60297"
     inkscape:cy="245.14142"
     inkscape:window-width="1551"
     inkscape:window-height="1082"
     inkscape:window-x="458"
     inkscape:window-y="166"
     inkscape:window-maximized="0"
     inkscape:current-layer="svg791" />
  <!--
BasedBox - Fully closed box on a base


This box is more of a building block than a finished item.
Use a vector graphics program (like Inkscape) to add holes or adjust the base
plate. The width of the "brim" can also be adjusted with the **edge_width**
 parameter in the **Finger Joints Settings**.

See ClosedBox for variant without a base.



Created with Boxes.py (https://festi.info/boxes.py)
Creation date: 2024-04-26 04:42:36
Command line (remove spaces between dashes): boxes BasedBox - -x=40.0 - -y=40.0
Url: http://www.festi.info/boxes.py/BasedBox?FingerJoint_angle=90.0&FingerJoint_style=rectangular&FingerJoint_surroundingspaces=2.0&FingerJoint_bottom_lip=0.0&FingerJoint_edge_width=1.0&FingerJoint_extra_length=0.0&FingerJoint_finger=2.0&FingerJoint_play=0.0&FingerJoint_space=2.0&FingerJoint_width=1.0&x=40.0&y=40.0&h=100.0&outside=0&outside=1&thickness=3.0&format=svg&tabs=0.0&qr_code=0&debug=0&labels=0&labels=1&reference=100&inner_corners=loop&burn=0.1&language=en&render=2
Url short: http://www.festi.info/boxes.py/BasedBox?x=40.0&y=40.0
SettingsUrl: http://www.festi.info/boxes.py/BasedBox?FingerJoint_angle=90.0&FingerJoint_style=rectangular&FingerJoint_surroundingspaces=2.0&FingerJoint_bottom_lip=0.0&FingerJoint_edge_width=1.0&FingerJoint_extra_length=0.0&FingerJoint_finger=2.0&FingerJoint_play=0.0&FingerJoint_space=2.0&FingerJoint_width=1.0&x=40.0&y=40.0&h=100.0&outside=0&outside=1&thickness=3.0&format=svg&tabs=0.0&qr_code=0&debug=0&labels=0&labels=1&reference=100&inner_corners=loop&burn=0.1&language=en&render=2
SettingsUrl short: http://www.festi.info/boxes.py/BasedBox?x=40.0&y=40.0
-->
  <title
     id="title736">BasedBox</title>
  <metadata
     id="metadata738">
    <rdf:RDF>
      <cc:Work>
        <dc:title>BasedBox</dc:title>
        <dc:date>2024-04-26 04:42:36</dc:date>
        <dc:source>http://www.festi.info/boxes.py/BasedBox?FingerJoint_angle=90.0&amp;FingerJoint_style=rectangular&amp;FingerJoint_surroundingspaces=2.0&amp;FingerJoint_bottom_lip=0.0&amp;FingerJoint_edge_width=1.0&amp;FingerJoint_extra_length=0.0&amp;FingerJoint_finger=2.0&amp;FingerJoint_play=0.0&amp;FingerJoint_space=2.0&amp;FingerJoint_width=1.0&amp;x=40.0&amp;y=40.0&amp;h=100.0&amp;outside=0&amp;outside=1&amp;thickness=3.0&amp;format=svg&amp;tabs=0.0&amp;qr_code=0&amp;debug=0&amp;labels=0&amp;labels=1&amp;reference=100&amp;inner_corners=loop&amp;burn=0.1&amp;language=en&amp;render=2</dc:source>
        <dc:source>http://www.festi.info/boxes.py/BasedBox?x=40.0&amp;y=40.0</dc:source>
        <dc:description>Fully closed box on a base

This box is more of a building block than a finished item.
Use a vector graphics program (like Inkscape) to add holes or adjust the base
plate. The width of the &quot;brim&quot; can also be adjusted with the **edge_width**
 parameter in the **Finger Joints Settings**.

See ClosedBox for variant without a base.


Created with Boxes.py (https://festi.info/boxes.py)
Command line: boxes BasedBox --FingerJoint_angle=90.0 --FingerJoint_style=rectangular --FingerJoint_surroundingspaces=2.0 --FingerJoint_bottom_lip=0.0 --FingerJoint_edge_width=1.0 --FingerJoint_extra_length=0.0 --FingerJoint_finger=2.0 --FingerJoint_play=0.0 --FingerJoint_space=2.0 --FingerJoint_width=1.0 --x=40.0 --y=40.0 --h=100.0 --outside=0 --outside=1 --thickness=3.0 --format=svg --tabs=0.0 --qr_code=0 --debug=0 --labels=0 --labels=1 --reference=100 --inner_corners=loop --burn=0.1
Command line short: boxes BasedBox --x=40.0 --y=40.0
Url: http://www.festi.info/boxes.py/BasedBox?FingerJoint_angle=90.0&amp;FingerJoint_style=rectangular&amp;FingerJoint_surroundingspaces=2.0&amp;FingerJoint_bottom_lip=0.0&amp;FingerJoint_edge_width=1.0&amp;FingerJoint_extra_length=0.0&amp;FingerJoint_finger=2.0&amp;FingerJoint_play=0.0&amp;FingerJoint_space=2.0&amp;FingerJoint_width=1.0&amp;x=40.0&amp;y=40.0&amp;h=100.0&amp;outside=0&amp;outside=1&amp;thickness=3.0&amp;format=svg&amp;tabs=0.0&amp;qr_code=0&amp;debug=0&amp;labels=0&amp;labels=1&amp;reference=100&amp;inner_corners=loop&amp;burn=0.1&amp;language=en&amp;render=2
Url short: http://www.festi.info/boxes.py/BasedBox?x=40.0&amp;y=40.0
SettingsUrl: http://www.festi.info/boxes.py/BasedBox?FingerJoint_angle=90.0&amp;FingerJoint_style=rectangular&amp;FingerJoint_surroundingspaces=2.0&amp;FingerJoint_bottom_lip=0.0&amp;FingerJoint_edge_width=1.0&amp;FingerJoint_extra_length=0.0&amp;FingerJoint_finger=2.0&amp;FingerJoint_play=0.0&amp;FingerJoint_space=2.0&amp;FingerJoint_width=1.0&amp;x=40.0&amp;y=40.0&amp;h=100.0&amp;outside=0&amp;outside=1&amp;thickness=3.0&amp;format=svg&amp;tabs=0.0&amp;qr_code=0&amp;debug=0&amp;labels=0&amp;labels=1&amp;reference=100&amp;inner_corners=loop&amp;burn=0.1&amp;language=en&amp;render=2
SettingsUrl short: http://www.festi.info/boxes.py/BasedBox?x=40.0&amp;y=40.0
</dc:description>
      </cc:Work>
    </rdf:RDF>
  </metadata>
  <g
     id="p-0"
     style="fill:none;stroke-linecap:round;stroke-linejoin:round;">
    <path
       d="M 18.800 271.300 H 118.800 V 261.300 H 18.800 V 271.300 Z"
       stroke="rgb(0,0,0)"
       stroke-width="0.20"
       id="path740" />
    <text
       dominant-baseline="hanging"
       font-size="8px"
       style="font-family: sans-serif ; font-weight: normal; font-style: normal; fill: rgb(255,0,0)"
       text-anchor="middle"
       transform="matrix( 1.000 0.000 0.000 1.000 68.800 262.300 )"
       id="text742">100.00mm, burn:0.10mm</text>
  </g>
  <g
     id="p-1"
     style="fill:none;stroke-linecap:round;stroke-linejoin:round;">
    <text
       dominant-baseline="hanging"
       font-size="4px"
       style="font-family: sans-serif ; font-weight: normal; font-style: normal; fill: rgb(255,0,0)"
       text-anchor="middle"
       transform="matrix( 1.000 0.000 0.000 1.000 38.800 207.600 )"
       id="text745">Wall 1</text>
    <path
       d="M 21.800 256.600 H 29.700 C 29.800 256.600 29.700 256.500 29.700 256.600 V 259.500 C 29.700 259.555 29.745 259.600 29.800 259.600 H 35.800 C 35.855 259.600 35.900 259.555 35.900 259.500 V 256.600 C 35.900 256.500 35.800 256.600 35.900 256.600 H 41.700 C 41.800 256.600 41.700 256.500 41.700 256.600 V 259.500 C 41.700 259.555 41.745 259.600 41.800 259.600 H 47.800 C 47.855 259.600 47.900 259.555 47.900 259.500 V 256.600 C 47.900 256.500 47.800 256.600 47.900 256.600 H 55.800 H 58.800 C 58.855 256.600 58.900 256.555 58.900 256.500 V 248.500 C 58.900 248.445 58.855 248.400 58.800 248.400 H 55.900 C 55.800 248.400 55.900 248.500 55.900 248.400 V 242.600 C 55.900 242.500 55.800 242.600 55.900 242.600 H 58.800 C 58.855 242.600 58.900 242.555 58.900 242.500 V 236.500 C 58.900 236.445 58.855 236.400 58.800 236.400 H 55.900 C 55.800 236.400 55.900 236.500 55.900 236.400 V 230.600 C 55.900 230.500 55.800 230.600 55.900 230.600 H 58.800 C 58.855 230.600 58.900 230.555 58.900 230.500 V 224.500 C 58.900 224.445 58.855 224.400 58.800 224.400 H 55.900 C 55.800 224.400 55.900 224.500 55.900 224.400 V 218.600 C 55.900 218.500 55.800 218.600 55.900 218.600 H 58.800 C 58.855 218.600 58.900 218.555 58.900 218.500 V 212.500 C 58.900 212.445 58.855 212.400 58.800 212.400 H 55.900 C 55.800 212.400 55.900 212.500 55.900 212.400 V 206.600 C 55.900 206.500 55.800 206.600 55.900 206.600 H 58.800 C 58.855 206.600 58.900 206.555 58.900 206.500 V 200.500 C 58.900 200.445 58.855 200.400 58.800 200.400 H 55.900 C 55.800 200.400 55.900 200.500 55.900 200.400 V 194.600 C 55.900 194.500 55.800 194.600 55.900 194.600 H 58.800 C 58.855 194.600 58.900 194.555 58.900 194.500 V 188.500 C 58.900 188.445 58.855 188.400 58.800 188.400 H 55.900 C 55.800 188.400 55.900 188.500 55.900 188.400 V 182.600 C 55.900 182.500 55.800 182.600 55.900 182.600 H 58.800 C 58.855 182.600 58.900 182.555 58.900 182.500 V 176.500 C 58.900 176.445 58.855 176.400 58.800 176.400 H 55.900 C 55.800 176.400 55.900 176.500 55.900 176.400 V 170.600 C 55.900 170.500 55.800 170.600 55.900 170.600 H 58.800 C 58.855 170.600 58.900 170.555 58.900 170.500 V 162.500 V 159.500 C 58.900 159.445 58.855 159.400 58.800 159.400 H 55.800 H 47.800 C 47.745 159.400 47.700 159.445 47.700 159.500 V 162.400 C 47.700 162.500 47.800 162.400 47.700 162.400 H 41.900 C 41.800 162.400 41.900 162.500 41.900 162.400 V 159.500 C 41.900 159.445 41.855 159.400 41.800 159.400 H 35.800 C 35.745 159.400 35.700 159.445 35.700 159.500 V 162.400 C 35.700 162.500 35.800 162.400 35.700 162.400 H 29.900 C 29.800 162.400 29.900 162.500 29.900 162.400 V 159.500 C 29.900 159.445 29.855 159.400 29.800 159.400 H 21.800 H 18.800 C 18.745 159.400 18.700 159.445 18.700 159.500 V 162.500 V 170.500 C 18.700 170.555 18.745 170.600 18.800 170.600 H 21.700 C 21.800 170.600 21.700 170.500 21.700 170.600 V 176.400 C 21.700 176.500 21.800 176.400 21.700 176.400 H 18.800 C 18.745 176.400 18.700 176.445 18.700 176.500 V 182.500 C 18.700 182.555 18.745 182.600 18.800 182.600 H 21.700 C 21.800 182.600 21.700 182.500 21.700 182.600 V 188.400 C 21.700 188.500 21.800 188.400 21.700 188.400 H 18.800 C 18.745 188.400 18.700 188.445 18.700 188.500 V 194.500 C 18.700 194.555 18.745 194.600 18.800 194.600 H 21.700 C 21.800 194.600 21.700 194.500 21.700 194.600 V 200.400 C 21.700 200.500 21.800 200.400 21.700 200.400 H 18.800 C 18.745 200.400 18.700 200.445 18.700 200.500 V 206.500 C 18.700 206.555 18.745 206.600 18.800 206.600 H 21.700 C 21.800 206.600 21.700 206.500 21.700 206.600 V 212.400 C 21.700 212.500 21.800 212.400 21.700 212.400 H 18.800 C 18.745 212.400 18.700 212.445 18.700 212.500 V 218.500 C 18.700 218.555 18.745 218.600 18.800 218.600 H 21.700 C 21.800 218.600 21.700 218.500 21.700 218.600 V 224.400 C 21.700 224.500 21.800 224.400 21.700 224.400 H 18.800 C 18.745 224.400 18.700 224.445 18.700 224.500 V 230.500 C 18.700 230.555 18.745 230.600 18.800 230.600 H 21.700 C 21.800 230.600 21.700 230.500 21.700 230.600 V 236.400 C 21.700 236.500 21.800 236.400 21.700 236.400 H 18.800 C 18.745 236.400 18.700 236.445 18.700 236.500 V 242.500 C 18.700 242.555 18.745 242.600 18.800 242.600 H 21.700 C 21.800 242.600 21.700 242.500 21.700 242.600 V 248.400 C 21.700 248.500 21.800 248.400 21.700 248.400 H 18.800 C 18.745 248.400 18.700 248.445 18.700 248.500 V 256.500 C 18.700 256.555 18.745 256.600 18.800 256.600 H 21.800"
       stroke="rgb(0,0,0)"
       stroke-width="0.20"
       id="path747" />
  </g>
  <g
     id="p-2"
     style="fill:none;stroke-linecap:round;stroke-linejoin:round;">
    <text
       dominant-baseline="hanging"
       font-size="4px"
       style="font-family: sans-serif ; font-weight: normal; font-style: normal; fill: rgb(255,0,0)"
       text-anchor="middle"
       transform="matrix( 1.000 0.000 0.000 1.000 80.500 207.600 )"
       id="text750">Wall 2</text>
    <path
       d="M 63.500 256.600 H 71.400 C 71.500 256.600 71.400 256.500 71.400 256.600 V 259.500 C 71.400 259.555 71.445 259.600 71.500 259.600 H 77.500 C 77.555 259.600 77.600 259.555 77.600 259.500 V 256.600 C 77.600 256.500 77.500 256.600 77.600 256.600 H 83.400 C 83.500 256.600 83.400 256.500 83.400 256.600 V 259.500 C 83.400 259.555 83.445 259.600 83.500 259.600 H 89.500 C 89.555 259.600 89.600 259.555 89.600 259.500 V 256.600 C 89.600 256.500 89.500 256.600 89.600 256.600 H 97.500 C 97.555 256.600 97.600 256.555 97.600 256.500 V 248.600 C 97.600 248.500 97.500 248.600 97.600 248.600 H 100.500 C 100.555 248.600 100.600 248.555 100.600 248.500 V 242.500 C 100.600 242.445 100.555 242.400 100.500 242.400 H 97.600 C 97.500 242.400 97.600 242.500 97.600 242.400 V 236.600 C 97.600 236.500 97.500 236.600 97.600 236.600 H 100.500 C 100.555 236.600 100.600 236.555 100.600 236.500 V 230.500 C 100.600 230.445 100.555 230.400 100.500 230.400 H 97.600 C 97.500 230.400 97.600 230.500 97.600 230.400 V 224.600 C 97.600 224.500 97.500 224.600 97.600 224.600 H 100.500 C 100.555 224.600 100.600 224.555 100.600 224.500 V 218.500 C 100.600 218.445 100.555 218.400 100.500 218.400 H 97.600 C 97.500 218.400 97.600 218.500 97.600 218.400 V 212.600 C 97.600 212.500 97.500 212.600 97.600 212.600 H 100.500 C 100.555 212.600 100.600 212.555 100.600 212.500 V 206.500 C 100.600 206.445 100.555 206.400 100.500 206.400 H 97.600 C 97.500 206.400 97.600 206.500 97.600 206.400 V 200.600 C 97.600 200.500 97.500 200.600 97.600 200.600 H 100.500 C 100.555 200.600 100.600 200.555 100.600 200.500 V 194.500 C 100.600 194.445 100.555 194.400 100.500 194.400 H 97.600 C 97.500 194.400 97.600 194.500 97.600 194.400 V 188.600 C 97.600 188.500 97.500 188.600 97.600 188.600 H 100.500 C 100.555 188.600 100.600 188.555 100.600 188.500 V 182.500 C 100.600 182.445 100.555 182.400 100.500 182.400 H 97.600 C 97.500 182.400 97.600 182.500 97.600 182.400 V 176.600 C 97.600 176.500 97.500 176.600 97.600 176.600 H 100.500 C 100.555 176.600 100.600 176.555 100.600 176.500 V 170.500 C 100.600 170.445 100.555 170.400 100.500 170.400 H 97.600 C 97.500 170.400 97.600 170.500 97.600 170.400 V 162.500 V 159.500 C 97.600 159.445 97.555 159.400 97.500 159.400 H 89.500 C 89.445 159.400 89.400 159.445 89.400 159.500 V 162.400 C 89.400 162.500 89.500 162.400 89.400 162.400 H 83.600 C 83.500 162.400 83.600 162.500 83.600 162.400 V 159.500 C 83.600 159.445 83.555 159.400 83.500 159.400 H 77.500 C 77.445 159.400 77.400 159.445 77.400 159.500 V 162.400 C 77.400 162.500 77.500 162.400 77.400 162.400 H 71.600 C 71.500 162.400 71.600 162.500 71.600 162.400 V 159.500 C 71.600 159.445 71.555 159.400 71.500 159.400 H 63.500 C 63.445 159.400 63.400 159.445 63.400 159.500 V 162.500 V 170.400 C 63.400 170.500 63.500 170.400 63.400 170.400 H 60.500 C 60.445 170.400 60.400 170.445 60.400 170.500 V 176.500 C 60.400 176.555 60.445 176.600 60.500 176.600 H 63.400 C 63.500 176.600 63.400 176.500 63.400 176.600 V 182.400 C 63.400 182.500 63.500 182.400 63.400 182.400 H 60.500 C 60.445 182.400 60.400 182.445 60.400 182.500 V 188.500 C 60.400 188.555 60.445 188.600 60.500 188.600 H 63.400 C 63.500 188.600 63.400 188.500 63.400 188.600 V 194.400 C 63.400 194.500 63.500 194.400 63.400 194.400 H 60.500 C 60.445 194.400 60.400 194.445 60.400 194.500 V 200.500 C 60.400 200.555 60.445 200.600 60.500 200.600 H 63.400 C 63.500 200.600 63.400 200.500 63.400 200.600 V 206.400 C 63.400 206.500 63.500 206.400 63.400 206.400 H 60.500 C 60.445 206.400 60.400 206.445 60.400 206.500 V 212.500 C 60.400 212.555 60.445 212.600 60.500 212.600 H 63.400 C 63.500 212.600 63.400 212.500 63.400 212.600 V 218.400 C 63.400 218.500 63.500 218.400 63.400 218.400 H 60.500 C 60.445 218.400 60.400 218.445 60.400 218.500 V 224.500 C 60.400 224.555 60.445 224.600 60.500 224.600 H 63.400 C 63.500 224.600 63.400 224.500 63.400 224.600 V 230.400 C 63.400 230.500 63.500 230.400 63.400 230.400 H 60.500 C 60.445 230.400 60.400 230.445 60.400 230.500 V 236.500 C 60.400 236.555 60.445 236.600 60.500 236.600 H 63.400 C 63.500 236.600 63.400 236.500 63.400 236.600 V 242.400 C 63.400 242.500 63.500 242.400 63.400 242.400 H 60.500 C 60.445 242.400 60.400 242.445 60.400 242.500 V 248.500 C 60.400 248.555 60.445 248.600 60.500 248.600 H 63.400 C 63.500 248.600 63.400 248.500 63.400 248.600 V 256.500 C 63.400 256.555 63.445 256.600 63.500 256.600"
       stroke="rgb(0,0,0)"
       stroke-width="0.20"
       id="path752" />
  </g>
  <g
     id="p-3"
     style="fill:none;stroke-linecap:round;stroke-linejoin:round;">
    <text
       dominant-baseline="hanging"
       font-size="4px"
       style="font-family: sans-serif ; font-weight: normal; font-style: normal; fill: rgb(255,0,0)"
       text-anchor="middle"
       transform="matrix( 1.000 0.000 0.000 1.000 80.500 105.900 )"
       id="text755">Wall 4</text>
    <path
       d="M 63.500 154.900 H 71.400 C 71.500 154.900 71.400 154.800 71.400 154.900 V 157.800 C 71.400 157.855 71.445 157.900 71.500 157.900 H 77.500 C 77.555 157.900 77.600 157.855 77.600 157.800 V 154.900 C 77.600 154.800 77.500 154.900 77.600 154.900 H 83.400 C 83.500 154.900 83.400 154.800 83.400 154.900 V 157.800 C 83.400 157.855 83.445 157.900 83.500 157.900 H 89.500 C 89.555 157.900 89.600 157.855 89.600 157.800 V 154.900 C 89.600 154.800 89.500 154.900 89.600 154.900 H 97.500 C 97.555 154.900 97.600 154.855 97.600 154.800 V 146.900 C 97.600 146.800 97.500 146.900 97.600 146.900 H 100.500 C 100.555 146.900 100.600 146.855 100.600 146.800 V 140.800 C 100.600 140.745 100.555 140.700 100.500 140.700 H 97.600 C 97.500 140.700 97.600 140.800 97.600 140.700 V 134.900 C 97.600 134.800 97.500 134.900 97.600 134.900 H 100.500 C 100.555 134.900 100.600 134.855 100.600 134.800 V 128.800 C 100.600 128.745 100.555 128.700 100.500 128.700 H 97.600 C 97.500 128.700 97.600 128.800 97.600 128.700 V 122.900 C 97.600 122.800 97.500 122.900 97.600 122.900 H 100.500 C 100.555 122.900 100.600 122.855 100.600 122.800 V 116.800 C 100.600 116.745 100.555 116.700 100.500 116.700 H 97.600 C 97.500 116.700 97.600 116.800 97.600 116.700 V 110.900 C 97.600 110.800 97.500 110.900 97.600 110.900 H 100.500 C 100.555 110.900 100.600 110.855 100.600 110.800 V 104.800 C 100.600 104.745 100.555 104.700 100.500 104.700 H 97.600 C 97.500 104.700 97.600 104.800 97.600 104.700 V 98.900 C 97.600 98.800 97.500 98.900 97.600 98.900 H 100.500 C 100.555 98.900 100.600 98.855 100.600 98.800 V 92.800 C 100.600 92.745 100.555 92.700 100.500 92.700 H 97.600 C 97.500 92.700 97.600 92.800 97.600 92.700 V 86.900 C 97.600 86.800 97.500 86.900 97.600 86.900 H 100.500 C 100.555 86.900 100.600 86.855 100.600 86.800 V 80.800 C 100.600 80.745 100.555 80.700 100.500 80.700 H 97.600 C 97.500 80.700 97.600 80.800 97.600 80.700 V 74.900 C 97.600 74.800 97.500 74.900 97.600 74.900 H 100.500 C 100.555 74.900 100.600 74.855 100.600 74.800 V 68.800 C 100.600 68.745 100.555 68.700 100.500 68.700 H 97.600 C 97.500 68.700 97.600 68.800 97.600 68.700 V 60.800 V 57.800 C 97.600 57.745 97.555 57.700 97.500 57.700 H 89.500 C 89.445 57.700 89.400 57.745 89.400 57.800 V 60.700 C 89.400 60.800 89.500 60.700 89.400 60.700 H 83.600 C 83.500 60.700 83.600 60.800 83.600 60.700 V 57.800 C 83.600 57.745 83.555 57.700 83.500 57.700 H 77.500 C 77.445 57.700 77.400 57.745 77.400 57.800 V 60.700 C 77.400 60.800 77.500 60.700 77.400 60.700 H 71.600 C 71.500 60.700 71.600 60.800 71.600 60.700 V 57.800 C 71.600 57.745 71.555 57.700 71.500 57.700 H 63.500 C 63.445 57.700 63.400 57.745 63.400 57.800 V 60.800 V 68.700 C 63.400 68.800 63.500 68.700 63.400 68.700 H 60.500 C 60.445 68.700 60.400 68.745 60.400 68.800 V 74.800 C 60.400 74.855 60.445 74.900 60.500 74.900 H 63.400 C 63.500 74.900 63.400 74.800 63.400 74.900 V 80.700 C 63.400 80.800 63.500 80.700 63.400 80.700 H 60.500 C 60.445 80.700 60.400 80.745 60.400 80.800 V 86.800 C 60.400 86.855 60.445 86.900 60.500 86.900 H 63.400 C 63.500 86.900 63.400 86.800 63.400 86.900 V 92.700 C 63.400 92.800 63.500 92.700 63.400 92.700 H 60.500 C 60.445 92.700 60.400 92.745 60.400 92.800 V 98.800 C 60.400 98.855 60.445 98.900 60.500 98.900 H 63.400 C 63.500 98.900 63.400 98.800 63.400 98.900 V 104.700 C 63.400 104.800 63.500 104.700 63.400 104.700 H 60.500 C 60.445 104.700 60.400 104.745 60.400 104.800 V 110.800 C 60.400 110.855 60.445 110.900 60.500 110.900 H 63.400 C 63.500 110.900 63.400 110.800 63.400 110.900 V 116.700 C 63.400 116.800 63.500 116.700 63.400 116.700 H 60.500 C 60.445 116.700 60.400 116.745 60.400 116.800 V 122.800 C 60.400 122.855 60.445 122.900 60.500 122.900 H 63.400 C 63.500 122.900 63.400 122.800 63.400 122.900 V 128.700 C 63.400 128.800 63.500 128.700 63.400 128.700 H 60.500 C 60.445 128.700 60.400 128.745 60.400 128.800 V 134.800 C 60.400 134.855 60.445 134.900 60.500 134.900 H 63.400 C 63.500 134.900 63.400 134.800 63.400 134.900 V 140.700 C 63.400 140.800 63.500 140.700 63.400 140.700 H 60.500 C 60.445 140.700 60.400 140.745 60.400 140.800 V 146.800 C 60.400 146.855 60.445 146.900 60.500 146.900 H 63.400 C 63.500 146.900 63.400 146.800 63.400 146.900 V 154.800 C 63.400 154.855 63.445 154.900 63.500 154.900"
       stroke="rgb(0,0,0)"
       stroke-width="0.20"
       id="path757" />
  </g>
  <g
     id="p-4"
     style="fill:none;stroke-linecap:round;stroke-linejoin:round;">
    <text
       dominant-baseline="hanging"
       font-size="4px"
       style="font-family: sans-serif ; font-weight: normal; font-style: normal; fill: rgb(255,0,0)"
       text-anchor="middle"
       transform="matrix( 1.000 0.000 0.000 1.000 38.800 105.900 )"
       id="text760">Wall 3</text>
    <path
       d="M 21.800 154.900 H 29.700 C 29.800 154.900 29.700 154.800 29.700 154.900 V 157.800 C 29.700 157.855 29.745 157.900 29.800 157.900 H 35.800 C 35.855 157.900 35.900 157.855 35.900 157.800 V 154.900 C 35.900 154.800 35.800 154.900 35.900 154.900 H 41.700 C 41.800 154.900 41.700 154.800 41.700 154.900 V 157.800 C 41.700 157.855 41.745 157.900 41.800 157.900 H 47.800 C 47.855 157.900 47.900 157.855 47.900 157.800 V 154.900 C 47.900 154.800 47.800 154.900 47.900 154.900 H 55.800 H 58.800 C 58.855 154.900 58.900 154.855 58.900 154.800 V 146.800 C 58.900 146.745 58.855 146.700 58.800 146.700 H 55.900 C 55.800 146.700 55.900 146.800 55.900 146.700 V 140.900 C 55.900 140.800 55.800 140.900 55.900 140.900 H 58.800 C 58.855 140.900 58.900 140.855 58.900 140.800 V 134.800 C 58.900 134.745 58.855 134.700 58.800 134.700 H 55.900 C 55.800 134.700 55.900 134.800 55.900 134.700 V 128.900 C 55.900 128.800 55.800 128.900 55.900 128.900 H 58.800 C 58.855 128.900 58.900 128.855 58.900 128.800 V 122.800 C 58.900 122.745 58.855 122.700 58.800 122.700 H 55.900 C 55.800 122.700 55.900 122.800 55.900 122.700 V 116.900 C 55.900 116.800 55.800 116.900 55.900 116.900 H 58.800 C 58.855 116.900 58.900 116.855 58.900 116.800 V 110.800 C 58.900 110.745 58.855 110.700 58.800 110.700 H 55.900 C 55.800 110.700 55.900 110.800 55.900 110.700 V 104.900 C 55.900 104.800 55.800 104.900 55.900 104.900 H 58.800 C 58.855 104.900 58.900 104.855 58.900 104.800 V 98.800 C 58.900 98.745 58.855 98.700 58.800 98.700 H 55.900 C 55.800 98.700 55.900 98.800 55.900 98.700 V 92.900 C 55.900 92.800 55.800 92.900 55.900 92.900 H 58.800 C 58.855 92.900 58.900 92.855 58.900 92.800 V 86.800 C 58.900 86.745 58.855 86.700 58.800 86.700 H 55.900 C 55.800 86.700 55.900 86.800 55.900 86.700 V 80.900 C 55.900 80.800 55.800 80.900 55.900 80.900 H 58.800 C 58.855 80.900 58.900 80.855 58.900 80.800 V 74.800 C 58.900 74.745 58.855 74.700 58.800 74.700 H 55.900 C 55.800 74.700 55.900 74.800 55.900 74.700 V 68.900 C 55.900 68.800 55.800 68.900 55.900 68.900 H 58.800 C 58.855 68.900 58.900 68.855 58.900 68.800 V 60.800 V 57.800 C 58.900 57.745 58.855 57.700 58.800 57.700 H 55.800 H 47.800 C 47.745 57.700 47.700 57.745 47.700 57.800 V 60.700 C 47.700 60.800 47.800 60.700 47.700 60.700 H 41.900 C 41.800 60.700 41.900 60.800 41.900 60.700 V 57.800 C 41.900 57.745 41.855 57.700 41.800 57.700 H 35.800 C 35.745 57.700 35.700 57.745 35.700 57.800 V 60.700 C 35.700 60.800 35.800 60.700 35.700 60.700 H 29.900 C 29.800 60.700 29.900 60.800 29.900 60.700 V 57.800 C 29.900 57.745 29.855 57.700 29.800 57.700 H 21.800 H 18.800 C 18.745 57.700 18.700 57.745 18.700 57.800 V 60.800 V 68.800 C 18.700 68.855 18.745 68.900 18.800 68.900 H 21.700 C 21.800 68.900 21.700 68.800 21.700 68.900 V 74.700 C 21.700 74.800 21.800 74.700 21.700 74.700 H 18.800 C 18.745 74.700 18.700 74.745 18.700 74.800 V 80.800 C 18.700 80.855 18.745 80.900 18.800 80.900 H 21.700 C 21.800 80.900 21.700 80.800 21.700 80.900 V 86.700 C 21.700 86.800 21.800 86.700 21.700 86.700 H 18.800 C 18.745 86.700 18.700 86.745 18.700 86.800 V 92.800 C 18.700 92.855 18.745 92.900 18.800 92.900 H 21.700 C 21.800 92.900 21.700 92.800 21.700 92.900 V 98.700 C 21.700 98.800 21.800 98.700 21.700 98.700 H 18.800 C 18.745 98.700 18.700 98.745 18.700 98.800 V 104.800 C 18.700 104.855 18.745 104.900 18.800 104.900 H 21.700 C 21.800 104.900 21.700 104.800 21.700 104.900 V 110.700 C 21.700 110.800 21.800 110.700 21.700 110.700 H 18.800 C 18.745 110.700 18.700 110.745 18.700 110.800 V 116.800 C 18.700 116.855 18.745 116.900 18.800 116.900 H 21.700 C 21.800 116.900 21.700 116.800 21.700 116.900 V 122.700 C 21.700 122.800 21.800 122.700 21.700 122.700 H 18.800 C 18.745 122.700 18.700 122.745 18.700 122.800 V 128.800 C 18.700 128.855 18.745 128.900 18.800 128.900 H 21.700 C 21.800 128.900 21.700 128.800 21.700 128.900 V 134.700 C 21.700 134.800 21.800 134.700 21.700 134.700 H 18.800 C 18.745 134.700 18.700 134.745 18.700 134.800 V 140.800 C 18.700 140.855 18.745 140.900 18.800 140.900 H 21.700 C 21.800 140.900 21.700 140.800 21.700 140.900 V 146.700 C 21.700 146.800 21.800 146.700 21.700 146.700 H 18.800 C 18.745 146.700 18.700 146.745 18.700 146.800 V 154.800 C 18.700 154.855 18.745 154.900 18.800 154.900 H 21.800"
       stroke="rgb(0,0,0)"
       stroke-width="0.20"
       id="path762" />
  </g>
  <g
     id="p-5"
     style="fill:none;stroke-linecap:round;stroke-linejoin:round;">
    <text
       dominant-baseline="hanging"
       font-size="4px"
       style="font-family: sans-serif ; font-weight: normal; font-style: normal; fill: rgb(255,0,0)"
       text-anchor="middle"
       transform="matrix( 1.000 0.000 0.000 1.000 38.800 34.200 )"
       id="text765">Top</text>
    <path
       d="M 21.800 53.200 H 29.700 C 29.800 53.200 29.700 53.100 29.700 53.200 V 56.100 C 29.700 56.155 29.745 56.200 29.800 56.200 H 35.800 C 35.855 56.200 35.900 56.155 35.900 56.100 V 53.200 C 35.900 53.100 35.800 53.200 35.900 53.200 H 41.700 C 41.800 53.200 41.700 53.100 41.700 53.200 V 56.100 C 41.700 56.155 41.745 56.200 41.800 56.200 H 47.800 C 47.855 56.200 47.900 56.155 47.900 56.100 V 53.200 C 47.900 53.100 47.800 53.200 47.900 53.200 H 55.800 C 55.855 53.200 55.900 53.155 55.900 53.100 V 45.200 C 55.900 45.100 55.800 45.200 55.900 45.200 H 58.800 C 58.855 45.200 58.900 45.155 58.900 45.100 V 39.100 C 58.900 39.045 58.855 39.000 58.800 39.000 H 55.900 C 55.800 39.000 55.900 39.100 55.900 39.000 V 33.200 C 55.900 33.100 55.800 33.200 55.900 33.200 H 58.800 C 58.855 33.200 58.900 33.155 58.900 33.100 V 27.100 C 58.900 27.045 58.855 27.000 58.800 27.000 H 55.900 C 55.800 27.000 55.900 27.100 55.900 27.000 V 19.100 C 55.900 19.045 55.855 19.000 55.800 19.000 H 47.900 C 47.800 19.000 47.900 19.100 47.900 19.000 V 16.100 C 47.900 16.045 47.855 16.000 47.800 16.000 H 41.800 C 41.745 16.000 41.700 16.045 41.700 16.100 V 19.000 C 41.700 19.100 41.800 19.000 41.700 19.000 H 35.900 C 35.800 19.000 35.900 19.100 35.900 19.000 V 16.100 C 35.900 16.045 35.855 16.000 35.800 16.000 H 29.800 C 29.745 16.000 29.700 16.045 29.700 16.100 V 19.000 C 29.700 19.100 29.800 19.000 29.700 19.000 H 21.800 C 21.745 19.000 21.700 19.045 21.700 19.100 V 27.000 C 21.700 27.100 21.800 27.000 21.700 27.000 H 18.800 C 18.745 27.000 18.700 27.045 18.700 27.100 V 33.100 C 18.700 33.155 18.745 33.200 18.800 33.200 H 21.700 C 21.800 33.200 21.700 33.100 21.700 33.200 V 39.000 C 21.700 39.100 21.800 39.000 21.700 39.000 H 18.800 C 18.745 39.000 18.700 39.045 18.700 39.100 V 45.100 C 18.700 45.155 18.745 45.200 18.800 45.200 H 21.700 C 21.800 45.200 21.700 45.100 21.700 45.200 V 53.100 C 21.700 53.155 21.745 53.200 21.800 53.200"
       stroke="rgb(0,0,0)"
       stroke-width="0.20"
       id="path767" />
  </g>
  <g
     id="p-6"
     style="fill:none;stroke-linecap:round;stroke-linejoin:round;">
    <path
       d="M 77.500 53.000 H 74.600 C 74.500 53.000 74.600 53.100 74.600 53.000 V 50.200 C 74.600 50.100 74.500 50.200 74.600 50.200 H 80.400 C 80.500 50.200 80.400 50.100 80.400 50.200 V 53.000 C 80.400 53.100 80.500 53.000 80.400 53.000 H 77.500 Z"
       stroke="rgb(0,0,255)"
       stroke-width="0.20"
       id="path770" />
    <path
       d="M 89.500 53.000 H 86.600 C 86.500 53.000 86.600 53.100 86.600 53.000 V 50.200 C 86.600 50.100 86.500 50.200 86.600 50.200 H 92.400 C 92.500 50.200 92.400 50.100 92.400 50.200 V 53.000 C 92.400 53.100 92.500 53.000 92.400 53.000 H 89.500 Z"
       stroke="rgb(0,0,255)"
       stroke-width="0.20"
       id="path772" />
    <text
       dominant-baseline="hanging"
       font-size="4px"
       style="font-family: sans-serif ; font-weight: normal; font-style: normal; fill: rgb(255,0,0)"
       text-anchor="middle"
       transform="matrix( 1.000 0.000 0.000 1.000 83.500 31.200 )"
       id="text774">Base</text>
    <path
       d="M 66.500 56.200 H 100.500 H 106.500 C 106.555 56.200 106.600 56.155 106.600 56.100 V 50.100 V 16.100 V 10.100 C 106.600 10.045 106.555 10.000 106.500 10.000 H 100.500 H 66.500 H 60.500 C 60.445 10.000 60.400 10.045 60.400 10.100 V 16.100 V 50.100 V 56.100 C 60.400 56.155 60.445 56.200 60.500 56.200 H 66.500"
       stroke="rgb(0,0,0)"
       stroke-width="0.20"
       id="path776" />
    <path
       d="M 103.400 39.100 V 42.000 C 103.400 42.100 103.500 42.000 103.400 42.000 H 100.600 C 100.500 42.000 100.600 42.100 100.600 42.000 V 36.200 C 100.600 36.100 100.500 36.200 100.600 36.200 H 103.400 C 103.500 36.200 103.400 36.100 103.400 36.200 V 39.100 Z"
       stroke="rgb(0,0,255)"
       stroke-width="0.20"
       id="path778" />
    <path
       d="M 103.400 27.100 V 30.000 C 103.400 30.100 103.500 30.000 103.400 30.000 H 100.600 C 100.500 30.000 100.600 30.100 100.600 30.000 V 24.200 C 100.600 24.100 100.500 24.200 100.600 24.200 H 103.400 C 103.500 24.200 103.400 24.100 103.400 24.200 V 27.100 Z"
       stroke="rgb(0,0,255)"
       stroke-width="0.20"
       id="path780" />
    <path
       d="M 89.500 13.200 H 92.400 C 92.500 13.200 92.400 13.100 92.400 13.200 V 16.000 C 92.400 16.100 92.500 16.000 92.400 16.000 H 86.600 C 86.500 16.000 86.600 16.100 86.600 16.000 V 13.200 C 86.600 13.100 86.500 13.200 86.600 13.200 H 89.500 Z"
       stroke="rgb(0,0,255)"
       stroke-width="0.20"
       id="path782" />
    <path
       d="M 77.500 13.200 H 80.400 C 80.500 13.200 80.400 13.100 80.400 13.200 V 16.000 C 80.400 16.100 80.500 16.000 80.400 16.000 H 74.600 C 74.500 16.000 74.600 16.100 74.600 16.000 V 13.200 C 74.600 13.100 74.500 13.200 74.600 13.200 H 77.500 Z"
       stroke="rgb(0,0,255)"
       stroke-width="0.20"
       id="path784" />
    <path
       d="M 63.600 27.100 V 24.200 C 63.600 24.100 63.500 24.200 63.600 24.200 H 66.400 C 66.500 24.200 66.400 24.100 66.400 24.200 V 30.000 C 66.400 30.100 66.500 30.000 66.400 30.000 H 63.600 C 63.500 30.000 63.600 30.100 63.600 30.000 V 27.100 Z"
       stroke="rgb(0,0,255)"
       stroke-width="0.20"
       id="path786" />
    <path
       d="M 63.600 39.100 V 36.200 C 63.600 36.100 63.500 36.200 63.600 36.200 H 66.400 C 66.500 36.200 66.400 36.100 66.400 36.200 V 42.000 C 66.400 42.100 66.500 42.000 66.400 42.000 H 63.600 C 63.500 42.000 63.600 42.100 63.600 42.000 V 39.100 Z"
       stroke="rgb(0,0,255)"
       stroke-width="0.20"
       id="path788" />
  </g>
  <circle
     style="fill:none;stroke:#000000;stroke-width:0.041129;-inkscape-stroke:none"
     id="path1"
     cx="38.866493"
     cy="70.497833"
     r="3.7294354" />
  <circle
     style="fill:none;stroke:#000000;stroke-width:0.137097;-inkscape-stroke:none"
     id="path1-3"
     cx="38.934662"
     cy="32.891266"
     r="12.431452" />
  <g
     inkscape:label="0"
     id="g11"
     transform="matrix(0,-0.26458333,0.26458333,0,-257.62685,87.899513)">
    <path
       d="m -20.314961,1179.2126 v -11.3386 h -9.921259 v 11.3386 z"
       style="fill:none;stroke:#000000"
       id="path5" />
    <path
       d="m -10.015748,1167.874 v 11.3386 h 9.92126 v -11.3386 z"
       style="fill:none;stroke:#000000"
       id="path6" />
    <path
       d="m 20.125984,1179.2126 v -11.3386 h -9.92126 v 11.3386 z"
       style="fill:none;stroke:#000000"
       id="path7" />
    <path
       d="m -20.314961,1077.1654 v -11.3386 h -9.921259 v 11.3386 z"
       style="fill:none;stroke:#000000"
       id="path8" />
    <path
       d="m -10.015748,1065.8268 v 11.3386 h 9.92126 v -11.3386 z"
       style="fill:none;stroke:#000000"
       id="path9" />
    <path
       d="m 20.125984,1077.1654 v -11.3386 h -9.92126 v 11.3386 z"
       style="fill:none;stroke:#000000"
       id="path10" />
    <path
       d="m 22.677165,1122.5197 a 22.677165,22.677165 0 0 0 -45.35433,0 22.677165,22.677165 0 0 0 45.35433,0 z"
       style="fill:none;stroke:#000000"
       id="path11" />
  </g>
  <path
     d="m 97.702733,32.149724 a 14,14 0 1 0 -27.999999,0 14,14 0 1 0 27.999999,0 z"
     style="fill:none;stroke:#000000;stroke-width:0.264583"
     id="path1173" />
</svg>
