<?xml version="1.0" encoding="UTF-8" standalone="no"?>
<svg
   height="111.30mm"
   viewBox="0.0 0.0 137.60 111.30"
   width="137.60mm"
   version="1.1"
   id="svg1034"
   sodipodi:docname="ponta.svg"
   inkscape:version="1.1.2 (0a00cf5339, 2022-02-04)"
   xmlns:inkscape="http://www.inkscape.org/namespaces/inkscape"
   xmlns:sodipodi="http://sodipodi.sourceforge.net/DTD/sodipodi-0.dtd"
   xmlns="http://www.w3.org/2000/svg"
   xmlns:svg="http://www.w3.org/2000/svg"
   xmlns:rdf="http://www.w3.org/1999/02/22-rdf-syntax-ns#"
   xmlns:cc="http://creativecommons.org/ns#"
   xmlns:dc="http://purl.org/dc/elements/1.1/">
  <defs
     id="defs1038" />
  <sodipodi:namedview
     id="namedview1036"
     pagecolor="#ffffff"
     bordercolor="#000000"
     borderopacity="0.25"
     inkscape:pageshadow="2"
     inkscape:pageopacity="0.0"
     inkscape:pagecheckerboard="0"
     inkscape:document-units="mm"
     showgrid="false"
     inkscape:zoom="4.1506064"
     inkscape:cx="116.36854"
     inkscape:cy="170.69795"
     inkscape:window-width="2560"
     inkscape:window-height="1290"
     inkscape:window-x="0"
     inkscape:window-y="27"
     inkscape:window-maximized="1"
     inkscape:current-layer="svg1034" />
  <!--
BasedBox - Fully closed box on a base


This box is more of a building block than a finished item.
Use a vector graphics program (like Inkscape) to add holes or adjust the base
plate. The width of the "brim" can also be adjusted with the **edge_width**
 parameter in the **Finger Joints Settings**.

See ClosedBox for variant without a base.



Created with Boxes.py (https://festi.info/boxes.py)
Creation date: 2024-04-26 04:58:12
Command line (remove spaces between dashes): boxes BasedBox - -x=20.0 - -y=20.0 - -h=25.0
Url: http://www.festi.info/boxes.py/BasedBox?FingerJoint_angle=90.0&FingerJoint_style=rectangular&FingerJoint_surroundingspaces=2.0&FingerJoint_bottom_lip=0.0&FingerJoint_edge_width=1.0&FingerJoint_extra_length=0.0&FingerJoint_finger=2.0&FingerJoint_play=0.0&FingerJoint_space=2.0&FingerJoint_width=1.0&x=20.0&y=20.0&h=25.0&outside=0&outside=1&thickness=3.0&format=svg&tabs=0.0&qr_code=0&debug=0&labels=0&labels=1&reference=100&inner_corners=loop&burn=0.1&language=en&render=2
Url short: http://www.festi.info/boxes.py/BasedBox?x=20.0&y=20.0&h=25.0
SettingsUrl: http://www.festi.info/boxes.py/BasedBox?FingerJoint_angle=90.0&FingerJoint_style=rectangular&FingerJoint_surroundingspaces=2.0&FingerJoint_bottom_lip=0.0&FingerJoint_edge_width=1.0&FingerJoint_extra_length=0.0&FingerJoint_finger=2.0&FingerJoint_play=0.0&FingerJoint_space=2.0&FingerJoint_width=1.0&x=20.0&y=20.0&h=25.0&outside=0&outside=1&thickness=3.0&format=svg&tabs=0.0&qr_code=0&debug=0&labels=0&labels=1&reference=100&inner_corners=loop&burn=0.1&language=en&render=2
SettingsUrl short: http://www.festi.info/boxes.py/BasedBox?x=20.0&y=20.0&h=25.0
-->
  <title
     id="title987">BasedBox</title>
  <metadata
     id="metadata989">
    <rdf:RDF>
      <cc:Work>
        <dc:title>BasedBox</dc:title>
        <dc:date>2024-04-26 04:58:12</dc:date>
        <dc:source>http://www.festi.info/boxes.py/BasedBox?FingerJoint_angle=90.0&amp;FingerJoint_style=rectangular&amp;FingerJoint_surroundingspaces=2.0&amp;FingerJoint_bottom_lip=0.0&amp;FingerJoint_edge_width=1.0&amp;FingerJoint_extra_length=0.0&amp;FingerJoint_finger=2.0&amp;FingerJoint_play=0.0&amp;FingerJoint_space=2.0&amp;FingerJoint_width=1.0&amp;x=20.0&amp;y=20.0&amp;h=25.0&amp;outside=0&amp;outside=1&amp;thickness=3.0&amp;format=svg&amp;tabs=0.0&amp;qr_code=0&amp;debug=0&amp;labels=0&amp;labels=1&amp;reference=100&amp;inner_corners=loop&amp;burn=0.1&amp;language=en&amp;render=2</dc:source>
        <dc:source>http://www.festi.info/boxes.py/BasedBox?x=20.0&amp;y=20.0&amp;h=25.0</dc:source>
        <dc:description>Fully closed box on a base

This box is more of a building block than a finished item.
Use a vector graphics program (like Inkscape) to add holes or adjust the base
plate. The width of the &quot;brim&quot; can also be adjusted with the **edge_width**
 parameter in the **Finger Joints Settings**.

See ClosedBox for variant without a base.


Created with Boxes.py (https://festi.info/boxes.py)
Command line: boxes BasedBox --FingerJoint_angle=90.0 --FingerJoint_style=rectangular --FingerJoint_surroundingspaces=2.0 --FingerJoint_bottom_lip=0.0 --FingerJoint_edge_width=1.0 --FingerJoint_extra_length=0.0 --FingerJoint_finger=2.0 --FingerJoint_play=0.0 --FingerJoint_space=2.0 --FingerJoint_width=1.0 --x=20.0 --y=20.0 --h=25.0 --outside=0 --outside=1 --thickness=3.0 --format=svg --tabs=0.0 --qr_code=0 --debug=0 --labels=0 --labels=1 --reference=100 --inner_corners=loop --burn=0.1
Command line short: boxes BasedBox --x=20.0 --y=20.0 --h=25.0
Url: http://www.festi.info/boxes.py/BasedBox?FingerJoint_angle=90.0&amp;FingerJoint_style=rectangular&amp;FingerJoint_surroundingspaces=2.0&amp;FingerJoint_bottom_lip=0.0&amp;FingerJoint_edge_width=1.0&amp;FingerJoint_extra_length=0.0&amp;FingerJoint_finger=2.0&amp;FingerJoint_play=0.0&amp;FingerJoint_space=2.0&amp;FingerJoint_width=1.0&amp;x=20.0&amp;y=20.0&amp;h=25.0&amp;outside=0&amp;outside=1&amp;thickness=3.0&amp;format=svg&amp;tabs=0.0&amp;qr_code=0&amp;debug=0&amp;labels=0&amp;labels=1&amp;reference=100&amp;inner_corners=loop&amp;burn=0.1&amp;language=en&amp;render=2
Url short: http://www.festi.info/boxes.py/BasedBox?x=20.0&amp;y=20.0&amp;h=25.0
SettingsUrl: http://www.festi.info/boxes.py/BasedBox?FingerJoint_angle=90.0&amp;FingerJoint_style=rectangular&amp;FingerJoint_surroundingspaces=2.0&amp;FingerJoint_bottom_lip=0.0&amp;FingerJoint_edge_width=1.0&amp;FingerJoint_extra_length=0.0&amp;FingerJoint_finger=2.0&amp;FingerJoint_play=0.0&amp;FingerJoint_space=2.0&amp;FingerJoint_width=1.0&amp;x=20.0&amp;y=20.0&amp;h=25.0&amp;outside=0&amp;outside=1&amp;thickness=3.0&amp;format=svg&amp;tabs=0.0&amp;qr_code=0&amp;debug=0&amp;labels=0&amp;labels=1&amp;reference=100&amp;inner_corners=loop&amp;burn=0.1&amp;language=en&amp;render=2
SettingsUrl short: http://www.festi.info/boxes.py/BasedBox?x=20.0&amp;y=20.0&amp;h=25.0
</dc:description>
      </cc:Work>
    </rdf:RDF>
  </metadata>
  <g
     id="p-0"
     style="fill:none;stroke-linecap:round;stroke-linejoin:round;">
    <path
       d="M 18.800 101.300 H 118.800 V 91.300 H 18.800 V 101.300 Z"
       stroke="rgb(0,0,0)"
       stroke-width="0.20"
       id="path991" />
    <text
       dominant-baseline="hanging"
       font-size="8px"
       style="font-family: sans-serif ; font-weight: normal; font-style: normal; fill: rgb(255,0,0)"
       text-anchor="middle"
       transform="matrix( 1.000 0.000 0.000 1.000 68.800 92.300 )"
       id="text993">100.00mm, burn:0.10mm</text>
  </g>
  <g
     id="p-1"
     style="fill:none;stroke-linecap:round;stroke-linejoin:round;">
    <text
       dominant-baseline="hanging"
       font-size="4px"
       style="font-family: sans-serif ; font-weight: normal; font-style: normal; fill: rgb(255,0,0)"
       text-anchor="middle"
       transform="matrix( 1.000 0.000 0.000 1.000 28.800 75.100 )"
       id="text996">Wall 1</text>
    <path
       d="M 21.800 86.600 H 25.700 C 25.800 86.600 25.700 86.500 25.700 86.600 V 89.500 C 25.700 89.555 25.745 89.600 25.800 89.600 H 31.800 C 31.855 89.600 31.900 89.555 31.900 89.500 V 86.600 C 31.900 86.500 31.800 86.600 31.900 86.600 H 35.800 H 38.800 C 38.855 86.600 38.900 86.555 38.900 86.500 V 80.000 C 38.900 79.945 38.855 79.900 38.800 79.900 H 35.900 C 35.800 79.900 35.900 80.000 35.900 79.900 V 74.100 C 35.900 74.000 35.800 74.100 35.900 74.100 H 38.800 C 38.855 74.100 38.900 74.055 38.900 74.000 V 67.500 V 64.500 C 38.900 64.445 38.855 64.400 38.800 64.400 H 35.800 H 31.800 C 31.745 64.400 31.700 64.445 31.700 64.500 V 67.400 C 31.700 67.500 31.800 67.400 31.700 67.400 H 25.900 C 25.800 67.400 25.900 67.500 25.900 67.400 V 64.500 C 25.900 64.445 25.855 64.400 25.800 64.400 H 21.800 H 18.800 C 18.745 64.400 18.700 64.445 18.700 64.500 V 67.500 V 74.000 C 18.700 74.055 18.745 74.100 18.800 74.100 H 21.700 C 21.800 74.100 21.700 74.000 21.700 74.100 V 79.900 C 21.700 80.000 21.800 79.900 21.700 79.900 H 18.800 C 18.745 79.900 18.700 79.945 18.700 80.000 V 86.500 C 18.700 86.555 18.745 86.600 18.800 86.600 H 21.800"
       stroke="rgb(0,0,0)"
       stroke-width="0.20"
       id="path998" />
  </g>
  <g
     id="p-2"
     style="fill:none;stroke-linecap:round;stroke-linejoin:round;">
    <text
       dominant-baseline="hanging"
       font-size="4px"
       style="font-family: sans-serif ; font-weight: normal; font-style: normal; fill: rgb(255,0,0)"
       text-anchor="middle"
       transform="matrix( 1.000 0.000 0.000 1.000 50.500 75.100 )"
       id="text1001">Wall 2</text>
    <path
       d="M 43.500 86.600 H 47.400 C 47.500 86.600 47.400 86.500 47.400 86.600 V 89.500 C 47.400 89.555 47.445 89.600 47.500 89.600 H 53.500 C 53.555 89.600 53.600 89.555 53.600 89.500 V 86.600 C 53.600 86.500 53.500 86.600 53.600 86.600 H 57.500 C 57.555 86.600 57.600 86.555 57.600 86.500 V 80.100 C 57.600 80.000 57.500 80.100 57.600 80.100 H 60.500 C 60.555 80.100 60.600 80.055 60.600 80.000 V 74.000 C 60.600 73.945 60.555 73.900 60.500 73.900 H 57.600 C 57.500 73.900 57.600 74.000 57.600 73.900 V 67.500 V 64.500 C 57.600 64.445 57.555 64.400 57.500 64.400 H 53.500 C 53.445 64.400 53.400 64.445 53.400 64.500 V 67.400 C 53.400 67.500 53.500 67.400 53.400 67.400 H 47.600 C 47.500 67.400 47.600 67.500 47.600 67.400 V 64.500 C 47.600 64.445 47.555 64.400 47.500 64.400 H 43.500 C 43.445 64.400 43.400 64.445 43.400 64.500 V 67.500 V 73.900 C 43.400 74.000 43.500 73.900 43.400 73.900 H 40.500 C 40.445 73.900 40.400 73.945 40.400 74.000 V 80.000 C 40.400 80.055 40.445 80.100 40.500 80.100 H 43.400 C 43.500 80.100 43.400 80.000 43.400 80.100 V 86.500 C 43.400 86.555 43.445 86.600 43.500 86.600"
       stroke="rgb(0,0,0)"
       stroke-width="0.20"
       id="path1003" />
  </g>
  <g
     id="p-3"
     style="fill:none;stroke-linecap:round;stroke-linejoin:round;">
    <text
       dominant-baseline="hanging"
       font-size="4px"
       style="font-family: sans-serif ; font-weight: normal; font-style: normal; fill: rgb(255,0,0)"
       text-anchor="middle"
       transform="matrix( 1.000 0.000 0.000 1.000 50.500 48.400 )"
       id="text1006">Wall 4</text>
    <path
       d="M 43.500 59.900 H 47.400 C 47.500 59.900 47.400 59.800 47.400 59.900 V 62.800 C 47.400 62.855 47.445 62.900 47.500 62.900 H 53.500 C 53.555 62.900 53.600 62.855 53.600 62.800 V 59.900 C 53.600 59.800 53.500 59.900 53.600 59.900 H 57.500 C 57.555 59.900 57.600 59.855 57.600 59.800 V 53.400 C 57.600 53.300 57.500 53.400 57.600 53.400 H 60.500 C 60.555 53.400 60.600 53.355 60.600 53.300 V 47.300 C 60.600 47.245 60.555 47.200 60.500 47.200 H 57.600 C 57.500 47.200 57.600 47.300 57.600 47.200 V 40.800 V 37.800 C 57.600 37.745 57.555 37.700 57.500 37.700 H 53.500 C 53.445 37.700 53.400 37.745 53.400 37.800 V 40.700 C 53.400 40.800 53.500 40.700 53.400 40.700 H 47.600 C 47.500 40.700 47.600 40.800 47.600 40.700 V 37.800 C 47.600 37.745 47.555 37.700 47.500 37.700 H 43.500 C 43.445 37.700 43.400 37.745 43.400 37.800 V 40.800 V 47.200 C 43.400 47.300 43.500 47.200 43.400 47.200 H 40.500 C 40.445 47.200 40.400 47.245 40.400 47.300 V 53.300 C 40.400 53.355 40.445 53.400 40.500 53.400 H 43.400 C 43.500 53.400 43.400 53.300 43.400 53.400 V 59.800 C 43.400 59.855 43.445 59.900 43.500 59.900"
       stroke="rgb(0,0,0)"
       stroke-width="0.20"
       id="path1008" />
  </g>
  <g
     id="p-4"
     style="fill:none;stroke-linecap:round;stroke-linejoin:round;">
    <text
       dominant-baseline="hanging"
       font-size="4px"
       style="font-family: sans-serif ; font-weight: normal; font-style: normal; fill: rgb(255,0,0)"
       text-anchor="middle"
       transform="matrix( 1.000 0.000 0.000 1.000 28.800 48.400 )"
       id="text1011">Wall 3</text>
    <path
       d="M 21.800 59.900 H 25.700 C 25.800 59.900 25.700 59.800 25.700 59.900 V 62.800 C 25.700 62.855 25.745 62.900 25.800 62.900 H 31.800 C 31.855 62.900 31.900 62.855 31.900 62.800 V 59.900 C 31.900 59.800 31.800 59.900 31.900 59.900 H 35.800 H 38.800 C 38.855 59.900 38.900 59.855 38.900 59.800 V 53.300 C 38.900 53.245 38.855 53.200 38.800 53.200 H 35.900 C 35.800 53.200 35.900 53.300 35.900 53.200 V 47.400 C 35.900 47.300 35.800 47.400 35.900 47.400 H 38.800 C 38.855 47.400 38.900 47.355 38.900 47.300 V 40.800 V 37.800 C 38.900 37.745 38.855 37.700 38.800 37.700 H 35.800 H 31.800 C 31.745 37.700 31.700 37.745 31.700 37.800 V 40.700 C 31.700 40.800 31.800 40.700 31.700 40.700 H 25.900 C 25.800 40.700 25.900 40.800 25.900 40.700 V 37.800 C 25.900 37.745 25.855 37.700 25.800 37.700 H 21.800 H 18.800 C 18.745 37.700 18.700 37.745 18.700 37.800 V 40.800 V 47.300 C 18.700 47.355 18.745 47.400 18.800 47.400 H 21.700 C 21.800 47.400 21.700 47.300 21.700 47.400 V 53.200 C 21.700 53.300 21.800 53.200 21.700 53.200 H 18.800 C 18.745 53.200 18.700 53.245 18.700 53.300 V 59.800 C 18.700 59.855 18.745 59.900 18.800 59.900 H 21.800"
       stroke="rgb(0,0,0)"
       stroke-width="0.20"
       id="path1013" />
  </g>
  <g
     id="p-5"
     style="fill:none;stroke-linecap:round;stroke-linejoin:round;">
    <text
       dominant-baseline="hanging"
       font-size="4px"
       style="font-family: sans-serif ; font-weight: normal; font-style: normal; fill: rgb(255,0,0)"
       text-anchor="middle"
       transform="matrix( 1.000 0.000 0.000 1.000 28.800 24.200 )"
       id="text1016">Top</text>
    <path
       d="M 21.800 33.200 H 25.700 C 25.800 33.200 25.700 33.100 25.700 33.200 V 36.100 C 25.700 36.155 25.745 36.200 25.800 36.200 H 31.800 C 31.855 36.200 31.900 36.155 31.900 36.100 V 33.200 C 31.900 33.100 31.800 33.200 31.900 33.200 H 35.800 C 35.855 33.200 35.900 33.155 35.900 33.100 V 29.200 C 35.900 29.100 35.800 29.200 35.900 29.200 H 38.800 C 38.855 29.200 38.900 29.155 38.900 29.100 V 23.100 C 38.900 23.045 38.855 23.000 38.800 23.000 H 35.900 C 35.800 23.000 35.900 23.100 35.900 23.000 V 19.100 C 35.900 19.045 35.855 19.000 35.800 19.000 H 31.900 C 31.800 19.000 31.900 19.100 31.900 19.000 V 16.100 C 31.900 16.045 31.855 16.000 31.800 16.000 H 25.800 C 25.745 16.000 25.700 16.045 25.700 16.100 V 19.000 C 25.700 19.100 25.800 19.000 25.700 19.000 H 21.800 C 21.745 19.000 21.700 19.045 21.700 19.100 V 23.000 C 21.700 23.100 21.800 23.000 21.700 23.000 H 18.800 C 18.745 23.000 18.700 23.045 18.700 23.100 V 29.100 C 18.700 29.155 18.745 29.200 18.800 29.200 H 21.700 C 21.800 29.200 21.700 29.100 21.700 29.200 V 33.100 C 21.700 33.155 21.745 33.200 21.800 33.200"
       stroke="rgb(0,0,0)"
       stroke-width="0.20"
       id="path1018" />
  </g>
  <g
     id="p-6"
     style="fill:none;stroke-linecap:round;stroke-linejoin:round;">
    <path
       d="M 53.500 33.000 H 50.600 C 50.500 33.000 50.600 33.100 50.600 33.000 V 30.200 C 50.600 30.100 50.500 30.200 50.600 30.200 H 56.400 C 56.500 30.200 56.400 30.100 56.400 30.200 V 33.000 C 56.400 33.100 56.500 33.000 56.400 33.000 H 53.500 Z"
       stroke="rgb(0,0,255)"
       stroke-width="0.20"
       id="path1021" />
    <text
       dominant-baseline="hanging"
       font-size="4px"
       style="font-family: sans-serif ; font-weight: normal; font-style: normal; fill: rgb(255,0,0)"
       text-anchor="middle"
       transform="matrix( 1.000 0.000 0.000 1.000 53.500 21.200 )"
       id="text1023">Base</text>
    <path
       d="M 46.500 36.200 H 60.500 H 66.500 C 66.555 36.200 66.600 36.155 66.600 36.100 V 30.100 V 16.100 V 10.100 C 66.600 10.045 66.555 10.000 66.500 10.000 H 60.500 H 46.500 H 40.500 C 40.445 10.000 40.400 10.045 40.400 10.100 V 16.100 V 30.100 V 36.100 C 40.400 36.155 40.445 36.200 40.500 36.200 H 46.500"
       stroke="rgb(0,0,0)"
       stroke-width="0.20"
       id="path1025" />
    <path
       d="M 63.400 23.100 V 26.000 C 63.400 26.100 63.500 26.000 63.400 26.000 H 60.600 C 60.500 26.000 60.600 26.100 60.600 26.000 V 20.200 C 60.600 20.100 60.500 20.200 60.600 20.200 H 63.400 C 63.500 20.200 63.400 20.100 63.400 20.200 V 23.100 Z"
       stroke="rgb(0,0,255)"
       stroke-width="0.20"
       id="path1027" />
    <path
       d="M 53.500 13.200 H 56.400 C 56.500 13.200 56.400 13.100 56.400 13.200 V 16.000 C 56.400 16.100 56.500 16.000 56.400 16.000 H 50.600 C 50.500 16.000 50.600 16.100 50.600 16.000 V 13.200 C 50.600 13.100 50.500 13.200 50.600 13.200 H 53.500 Z"
       stroke="rgb(0,0,255)"
       stroke-width="0.20"
       id="path1029" />
    <path
       d="M 43.600 23.100 V 20.200 C 43.600 20.100 43.500 20.200 43.600 20.200 H 46.400 C 46.500 20.200 46.400 20.100 46.400 20.200 V 26.000 C 46.400 26.100 46.500 26.000 46.400 26.000 H 43.600 C 43.500 26.000 43.600 26.100 43.600 26.000 V 23.100 Z"
       stroke="rgb(0,0,255)"
       stroke-width="0.20"
       id="path1031" />
  </g>
  <rect
     style="fill:#020101;fill-opacity:0;stroke:#000000;stroke-width:0.282432;stroke-miterlimit:4;stroke-dasharray:none;stroke-dashoffset:0"
     id="rect1119"
     width="11.717568"
     height="14.717568"
     x="23.141737"
     y="69.870064" />
  <circle
     style="fill:#020101;fill-opacity:0;stroke:#000000;stroke-width:0.412253;stroke-miterlimit:4;stroke-dasharray:none;stroke-dashoffset:0"
     id="path1270"
     cx="53.568245"
     cy="23.070879"
     r="5.7938738" />
  <circle
     style="fill:#020101;fill-opacity:0;stroke:#000000;stroke-width:0.412253;stroke-miterlimit:4;stroke-dasharray:none;stroke-dashoffset:0"
     id="path1270-3"
     cx="28.98987"
     cy="25.985666"
     r="5.7938738" />
</svg>
